<?xml version="1.0" encoding="UTF-8" standalone="no"?>
<svg
   width="46.19923"
   height="48.878834"
   viewBox="0 0 41.9993 44.435303"
   fill="none"
   version="1.1"
   id="svg20"
   xmlns="http://www.w3.org/2000/svg"
   xmlns:svg="http://www.w3.org/2000/svg"
   xmlns:rdf="http://www.w3.org/1999/02/22-rdf-syntax-ns#"
   xmlns:cc="http://creativecommons.org/ns#"
   xmlns:dc="http://purl.org/dc/elements/1.1/">
  <title
     id="title20">extreme-networks</title>
  <path
     fill-rule="evenodd"
     clip-rule="evenodd"
     d="m 41.9993,0.740581 v 7.40586 c 0,0.40901 -0.3358,0.74058 -0.75,0.74058 H 9.74984 c -0.41421,0 -0.74999,0.33157 -0.74999,0.74058 v 15.1894 c 9.4e-4,1.1807 -0.474,2.3132 -1.31998,3.1475 L 0,35.548101 V 0.740581 C 0,0.331571 0.335781,0 0.749988,0 H 41.2493 c 0.4142,0 0.75,0.331571 0.75,0.740581 z m -23.2499,25.92042 h 16.6122 c 0.4142,0 0.75,-0.3316 0.75,-0.7406 v -7.4059 c 0,-0.409 -0.3358,-0.7406 -0.75,-0.7406 H 18.7494 c -0.4142,0 -0.75,0.3316 -0.75,0.7406 v 7.4059 c 0,0.409 0.3358,0.7406 0.75,0.7406 z M 7.67987,43.131801 0,35.548201 h 41.2493 c 0.4142,0 0.75,0.3316 0.75,0.7406 v 7.4059 c 0,0.409 -0.3358,0.7406 -0.75,0.7406 h -30.382 c -1.19563,9e-4 -2.3425,-0.4681 -3.18743,-1.3035 z"
     fill="url(#paint0_linear_158_12425)"
     id="path17"
     style="fill:url(#paint0_linear_158_12425)" />
  <defs
     id="defs20">
    <linearGradient
       id="paint0_linear_158_12425"
       x1="7.5100601e-05"
       y1="0.46099901"
       x2="7.5100601e-05"
       y2="44.896198"
       gradientUnits="userSpaceOnUse"
       gradientTransform="translate(0,-0.460999)">
      <stop
         stop-color="#440099"
         id="stop17" />
      <stop
         offset="0.3309"
         stop-color="#3E0090"
         id="stop18" />
      <stop
         offset="0.8793"
         stop-color="#2C0076"
         id="stop19" />
      <stop
         offset="0.9957"
         stop-color="#280070"
         id="stop20" />
    </linearGradient>
  </defs>
  <metadata
     id="metadata20">
    <rdf:RDF>
      <cc:Work
         rdf:about="">
        <dc:title>extreme-networks</dc:title>
      </cc:Work>
    </rdf:RDF>
  </metadata>
</svg>
